<svg width="512" height="209" viewBox="0 0 512 209" fill="none" xmlns="http://www.w3.org/2000/svg">
<path d="M60.4188 139.127C73.9618 108.655 88.306 78.5823 103.218 48.7588C106.419 42.3569 104.71 45.8639 98.448 51.9816C76.2536 73.6658 53.4532 94.7172 31.5423 116.696C23.3832 124.88 12.3372 131.477 8.08018 142.221C7.504 143.675 11.157 141.405 12.4632 140.545C22.9281 133.65 55.4929 108.165 60.6766 104.191C61.4581 103.592 100.334 71.9625 110.308 69.3848C125.159 65.5468 107.488 100.337 101.929 114.633C97.8045 125.238 89.7203 134.975 89.2952 146.346C88.8745 157.6 110.413 137.994 119.719 131.65C126.008 127.361 132.332 116.883 139.313 119.919C143.83 121.882 123.247 152.782 123.07 153.049C114.237 166.453 115.349 163.545 106.827 174.449C102.504 179.98 118.846 167.152 124.488 162.975C155.912 139.718 189.645 110.134 226.716 96.3276C230.258 95.0083 237.161 94.3029 237.932 98.0034C239.469 105.381 216.136 135.413 215.243 136.677C210.859 142.88 201.517 155.31 197.195 163.233C196.427 164.642 194.076 167.044 195.519 167.745C197.501 168.708 199.759 166.453 201.707 165.425C207.6 162.316 213.259 158.781 218.981 155.37C242.386 141.417 257.084 131.925 281.117 118.501C293.918 111.35 326.601 90.1708 322.756 104.32C319.49 116.34 297.305 150.536 294.138 155.627C291.643 159.637 239.467 226.842 286.532 189.66C358.326 132.943 425.566 70.4875 496.788 13.0499C502.066 8.79407 504.78 5.39382 502.074 11.8897C496.304 25.7381 488.167 38.9265 479.643 51.2081C478.355 53.0633 459.268 76.0617 461.724 74.5413C465.418 72.2544 479.585 60.5399 482.221 68.7402C488.098 87.0227 478.656 97.9325 471.135 113.602" stroke="#043CAA" stroke-width="16" stroke-linecap="round"/>
</svg>
